HIERARCHY
ROOT root     
{
	OFFSET 0.0000 0.0000 0.0000
	CHANNELS 6 Xposition Yposition Zposition Zrotation Yrotation Xrotation
	JOINT pelvis   
	{
		OFFSET 0.0000 0.0000 0.0000
		CHANNELS 3 Zrotation Yrotation Xrotation
		JOINT thorax   
		{
			OFFSET 0.0000 23.0750 -5.0000
			CHANNELS 3 Zrotation Yrotation Xrotation
			JOINT rclavicle
			{
				OFFSET 0.0000 28.0009 0.0000
				CHANNELS 3 Zrotation Yrotation Xrotation
				JOINT rhumerus 
				{
					OFFSET -18.5725 5.5939 0.0000
					CHANNELS 3 Zrotation Yrotation Xrotation
					JOINT rradius  
					{
						OFFSET -24.8459 0.0000 0.0000
						CHANNELS 3 Zrotation Yrotation Xrotation
						JOINT rhand    
						{
							OFFSET -24.5477 0.0000 0.0000
							CHANNELS 3 Zrotation Yrotation Xrotation
							End Site
							{
								OFFSET -8.1826 0.0000 0.0000
							}
						}
					}
				}
			}
			JOINT lclavicle
			{
				OFFSET 0.0000 28.0009 0.0000
				CHANNELS 3 Zrotation Yrotation Xrotation
				JOINT lhumerus 
				{
					OFFSET 18.5725 5.5939 0.0000
					CHANNELS 3 Zrotation Yrotation Xrotation
					JOINT lradius  
					{
						OFFSET 24.8459 0.0000 0.0000
						CHANNELS 3 Zrotation Yrotation Xrotation
						JOINT lhand    
						{
							OFFSET 24.5477 0.0000 0.0000
							CHANNELS 3 Zrotation Yrotation Xrotation
							End Site
							{
								OFFSET 8.1826 0.0000 0.0000
							}
						}
					}
				}
			}
			JOINT head     
			{
				OFFSET 0.0000 35.2030 0.0000
				CHANNELS 3 Zrotation Yrotation Xrotation
				End Site
				{
					OFFSET 0.0000 11.7343 0.0000
				}
			}
		}
		JOINT rfemur   
		{
			OFFSET -8.2817 0.0000 0.0000
			CHANNELS 3 Zrotation Yrotation Xrotation
			JOINT rtibia   
			{
				OFFSET 0.0000 -43.3627 0.0000
				CHANNELS 3 Zrotation Yrotation Xrotation
				JOINT rfoot    
				{
					OFFSET 0.0000 -38.2947 0.0000
					CHANNELS 3 Zrotation Yrotation Xrotation
					JOINT rtoes    
					{
						OFFSET 0.0000 0.0000 16.6054
						CHANNELS 3 Zrotation Yrotation Xrotation
						End Site
						{
							OFFSET 0.0000 0.0000 5.5351
						}
					}
				}
			}
		}
		JOINT lfemur   
		{
			OFFSET 8.2817 0.0000 0.0000
			CHANNELS 3 Zrotation Yrotation Xrotation
			JOINT ltibia   
			{
				OFFSET 0.0000 -43.3627 0.0000
				CHANNELS 3 Zrotation Yrotation Xrotation
				JOINT lfoot    
				{
					OFFSET 0.0000 -38.2947 0.0000
					CHANNELS 3 Zrotation Yrotation Xrotation
					JOINT ltoes    
					{
						OFFSET 0.0000 0.0000 16.6054
						CHANNELS 3 Zrotation Yrotation Xrotation
						End Site
						{
							OFFSET 0.0000 0.0000 5.5351
						}
					}
				}
			}
		}
	}
}
MOTION
Frames: 9
Frame Time: .0333333
41.331 84.09 -0.4866 14.6517 55.8917 32.0191 0 -0 0 4.52115 -9.20212 -9.67898 26.1452 -11.6752 -1.23555e-05 53.3858 -5.23794 20.0989 -1.17424e-06 73.0071 -8.69024e-07 -1.54059 4.11047 -0.0553003 -24.5612 14.2446 -1.83533e-05 -25.9476 1.90267 0.786649 -180 -78.0053 180 7.47384 1.98073 0.1294 -16.4392 -3.72805 -6.80688 6.72404 2.07522 -33.1221 -0 -0 22.0185 9.64403e-06 -8.75485 -4.15193 -179.361 9.7082e-07 -17.4615 -3.96442 14.6178 -0.939698 -0 -0 29.819 -4.99376e-05 -6.0928 25.4172 -2.62303 1.10134e-05 -75.4239 
42.381 83.871 0.0866 14.5749 55.7806 31.9939 0 -0 0 4.85512 -9.17007 -9.79231 26.3973 -11.6026 -3.14725e-05 52.9355 -4.79049 19.946 -8.09676e-07 71.9571 -1.11531e-06 -2.27401 3.87339 -0.0769003 -24.9052 14.3202 2.31471e-05 -25.951 1.87745 0.279616 -180 -78.2393 180 7.89057 1.58374 0.1092 -16.6371 -3.26494 -6.94757 6.73659 2.00973 -33.4615 -0 -0 24.5129 -7.43525e-07 -8.69374 -5.77505 -179.118 4.30624e-06 -19.4822 -3.48131 14.4213 -1.5271 -0 -0 32.0708 -3.41317e-05 -6.9858 25.8962 -3.06321 -1.91001e-05 -72.4645 
43.413 83.7 0.6964 14.4711 55.7633 31.8716 0 -0 0 5.15001 -9.21305 -9.78326 26.6876 -11.5233 4.52469e-05 52.4956 -4.22628 19.8468 -7.54901e-07 70.8634 -1.06101e-06 -2.94909 3.58417 -0.0922987 -25.201 14.3747 1.08238e-05 -26.1039 1.87255 -0.107989 180 -78.5893 180 8.40711 1.19909 0.0880976 -16.6848 -2.81297 -7.1023 6.84217 1.75758 -33.4883 -0 -0 26.5819 -1.58525e-06 -8.41305 -7.2504 -178.931 4.39103e-06 -20.5585 -2.87981 14.3412 -2.14856 -0 -0 34.3826 -3.87246e-05 -7.48071 26.2969 -3.32919 -2.33538e-06 -69.1856 
44.422 83.581 1.343 14.3359 55.8171 31.6648 0 -0 0 5.39453 -9.31048 -9.67258 27.0028 -11.4352 4.83402e-05 52.0929 -3.57574 19.7952 -1.01203e-06 69.7546 -7.05405e-07 -3.54561 3.23906 -0.1003 -25.4447 14.41 1.84744e-05 -26.3834 1.88629 -0.356195 -180 -79.056 180 8.99576 0.855298 0.0673006 -16.5709 -2.37497 -7.2443 7.02932 1.37758 -33.1967 -0 -0 28.1204 -1.1089e-05 -7.98008 -8.5558 -178.805 -3.07105e-07 -20.9355 -2.18301 14.3633 -2.81928 -0 -0 36.7227 -1.4669e-05 -7.49024 26.6012 -3.36938 -3.19447e-05 -65.8075 
45.408 83.514 2.023 14.1825 55.9153 31.3959 0 -0 0 5.56241 -9.44023 -9.48206 27.3239 -11.3327 5.86123e-05 51.7571 -2.88181 19.7765 -6.61748e-07 68.6641 -9.68914e-07 -4.0437 2.83993 -0.100301 -25.6266 14.4282 0.000124402 -26.7636 1.916 -0.449909 -180 -79.6516 180 9.61993 0.580498 0.0488985 -16.2902 -1.95422 -7.34605 7.27296 0.914713 -32.6038 -0 -0 29.0947 2.9836e-06 -7.45716 -9.67874 -178.739 -6.57183e-07 -20.7779 -1.43421 14.4511 -3.54752 -0 -0 39.0524 -5.19841e-05 -6.97009 26.7998 -3.15499 -3.48026e-05 -62.5878 
46.372 83.494 2.7313 14.0323 56.0291 31.1015 0 -0 0 5.63062 -9.57938 -9.23915 27.6329 -11.2149 1.08352e-05 51.5134 -2.18513 19.7856 -6.24208e-07 67.6294 -9.31909e-07 -4.43166 2.39425 -0.0927001 -25.7392 14.4315 5.42896e-05 -27.2139 1.96234 -0.381407 180 -80.3852 180 10.2376 0.4024 0.0359991 -15.8402 -1.55273 -7.38341 7.54186 0.422025 -31.7442 -0 -0 29.5089 -6.58266e-06 -6.91835 -10.6043 -178.721 -6.57412e-07 -20.247 -0.678214 14.5684 -4.34293 -0 -0 41.3368 -4.81994e-05 -5.93776 26.8736 -2.69167 -1.27231e-05 -59.6249 
47.316 83.517 3.4586 13.9294 56.1286 30.8393 0 -0 0 5.56326 -9.70802 -8.97576 27.9137 -11.0967 4.87817e-05 51.3783 -1.50694 19.8367 -0 66.6795 -0 -4.71078 1.91685 -0.0789011 -25.7769 14.4183 7.77942e-05 -27.7026 2.03005 -0.150092 -180 -81.2458 180 10.8036 0.346499 0.0328008 -15.2234 -1.1728 -7.33693 7.79199 -0.062772 -30.672 -0 -0 29.4178 -8.75975e-06 -6.42237 -11.3243 -178.734 -1.1325e-05 -19.479 0.0223745 14.6654 -5.21694 -0 -0 43.5345 1.53971e-05 -4.45976 26.7977 -2.01388 2.28282e-05 -56.8579 
48.242 83.578 4.1994 13.8921 56.1965 30.635 0 -0 0 5.35072 -9.80857 -8.71228 28.1489 -10.9708 -3.17139e-05 51.3635 -0.88949 19.9157 -8.75778e-07 65.8509 -5.67103e-07 -4.87581 1.42793 -0.0608012 -25.7394 14.3923 -2.72573e-05 -28.1986 2.11759 0.235999 -180 -82.2341 180 11.2709 0.432602 0.0427003 -14.4536 -0.816104 -7.19727 7.99412 -0.493495 -29.4296 -0 -0 28.8841 3.81634e-06 -6.03068 -11.8322 -178.759 4.29134e-06 -18.6504 0.633091 14.7048 -6.16604 -0 -0 45.6087 -1.09852e-06 -2.65531 26.5675 -1.18829 2.03973e-08 -54.3621 
49.154 83.672 4.9459 13.9488 56.2149 30.5304 0 -0 0 4.98259 -9.86787 -8.47254 28.3267 -10.8457 -2.4529e-05 51.4681 -0.348541 20.0367 -0 65.1647 -0 -4.93427 0.952005 -0.0409998 -25.6354 14.3526 3.91049e-06 -28.6742 2.22735 0.761984 -180 -83.3298 180 11.5989 0.673198 0.0683993 -13.5469 -0.483776 -6.96401 8.11792 -0.836022 -28.0724 -0 -0 27.9965 1.62412e-05 -5.78263 -12.1308 -178.781 -6.20124e-06 -17.9356 1.11704 14.6484 -7.19316 -0 -0 47.5291 8.55356e-07 -0.669005 26.1812 -0.295202 -1.32468e-06 -52.0705 
